<?xml version="1.0" standalone="no"?>
<!DOCTYPE svg PUBLIC "-//W3C//DTD SVG 20010904//EN"
 "http://www.w3.org/TR/2001/REC-SVG-20010904/DTD/svg10.dtd">
<svg version="1.0" xmlns="http://www.w3.org/2000/svg"
 width="500.000000pt" height="500.000000pt" viewBox="0 0 500.000000 500.000000"
 preserveAspectRatio="xMidYMid meet">

<g transform="translate(0.000000,500.000000) scale(0.100000,-0.100000)"
fill="#000000" stroke="none">
<path d="M530 3870 l0 -280 723 0 722 0 45 56 c142 178 397 369 625 469 l80
35 -1097 0 -1098 0 0 -280z"/>
<path d="M3122 4139 c-434 -58 -857 -314 -1075 -649 -127 -196 -610 -1008
-1202 -2020 -153 -261 -286 -490 -297 -507 l-20 -33 1013 0 1014 0 -78 44
c-185 106 -390 285 -506 444 l-54 72 -208 0 c-115 0 -209 3 -209 6 0 3 35 65
79 138 43 72 190 320 326 551 136 231 289 490 340 575 51 85 113 196 139 245
141 275 388 474 684 552 82 21 119 25 247 26 172 0 262 -15 393 -68 106 -43
207 -106 302 -189 l75 -65 195 195 195 195 -75 70 c-113 104 -240 192 -385
264 -230 114 -391 154 -650 160 -93 2 -203 -1 -243 -6z"/>
<path d="M3297 3394 c-3 -3 -3 -29 -1 -58 6 -56 0 -53 -37 17 -25 47 -49 49
-49 3 0 -79 13 -156 26 -156 10 0 14 15 14 53 l0 52 31 -53 c43 -75 55 -65 50
44 -2 49 -5 92 -8 97 -5 9 -17 9 -26 1z"/>
<path d="M3376 3328 c-4 -35 -9 -78 -13 -95 l-5 -33 51 0 c60 0 64 6 76 107 6
55 5 62 -13 72 -12 6 -36 11 -55 11 l-34 0 -7 -62z m74 -8 c0 -56 -12 -90 -32
-90 -17 0 -18 5 -13 53 9 70 12 78 30 71 8 -4 15 -18 15 -34z"/>
<path d="M3077 3364 c-4 -4 -7 -51 -7 -105 0 -83 2 -97 15 -93 8 4 15 15 15
25 0 26 49 38 62 15 9 -16 38 -23 38 -8 0 4 -20 43 -44 87 -41 75 -62 96 -79
79z m53 -105 c0 -4 -7 -9 -15 -13 -12 -4 -15 3 -15 32 l1 37 14 -25 c8 -14 14
-28 15 -31z"/>
<path d="M3551 3347 c-6 -8 -14 -28 -17 -45 -5 -25 -2 -33 20 -47 14 -10 26
-26 26 -36 0 -26 -36 -25 -43 1 -7 26 -24 26 -32 0 -9 -27 9 -47 47 -55 36 -8
55 7 64 52 5 26 2 34 -20 48 -29 19 -35 55 -10 55 9 0 18 -9 21 -20 6 -23 28
-27 37 -5 9 24 -3 43 -36 54 -39 14 -43 14 -57 -2z"/>
<path d="M2898 3294 l-28 -14 42 -85 c24 -47 48 -85 55 -85 16 0 17 15 3 40
-16 30 8 36 36 9 33 -31 53 -13 24 24 -11 14 -19 29 -18 34 2 5 -6 27 -16 51
-21 47 -47 54 -98 26z m79 -68 c-8 -23 -37 -17 -49 9 -10 22 -9 28 3 36 16 10
52 -26 46 -45z"/>
<path d="M2746 3227 c-20 -17 -27 -28 -21 -38 21 -34 118 -159 124 -159 4 0
22 13 41 29 l35 29 -20 37 c-11 21 -25 40 -32 42 -7 3 -13 9 -13 14 0 21 -45
69 -64 69 -12 0 -34 -11 -50 -23z m68 -39 c8 -13 7 -21 -1 -29 -9 -9 -17 -7
-32 12 -10 13 -17 28 -14 32 8 13 35 4 47 -15z m54 -69 c21 -34 -2 -49 -31
-21 -19 19 -20 24 -7 32 21 13 23 13 38 -11z"/>
<path d="M2577 3013 c-4 -3 -7 -10 -7 -14 0 -10 149 -124 154 -118 53 69 57
77 39 83 -11 5 -23 0 -34 -15 l-16 -22 -61 46 c-65 50 -65 50 -75 40z"/>
<path d="M3237 2913 c-11 -11 -8 -38 9 -72 15 -31 34 -34 34 -5 0 8 4 14 9 14
16 0 23 40 11 55 -13 15 -51 20 -63 8z m43 -33 c0 -5 -4 -10 -9 -10 -6 0 -13
5 -16 10 -3 6 1 10 9 10 9 0 16 -4 16 -10z"/>
<path d="M2496 2875 c-4 -11 16 -26 74 -55 44 -22 84 -40 90 -40 14 0 42 59
36 76 -8 21 -21 17 -34 -11 l-12 -25 -70 35 c-80 40 -76 39 -84 20z"/>
<path d="M3224 2786 c-3 -8 -28 -22 -55 -31 -27 -9 -49 -20 -49 -24 0 -14 62
-176 71 -185 23 -24 19 11 -9 88 -17 47 -28 87 -24 89 4 3 24 10 45 16 20 7
37 17 37 22 0 5 11 9 25 9 14 0 25 -4 25 -10 0 -5 19 -15 43 -21 23 -7 45 -15
50 -19 4 -3 -4 -39 -18 -80 -28 -82 -31 -104 -13 -98 11 4 68 158 68 184 0 7
-22 20 -49 29 -27 9 -52 23 -55 31 -3 9 -20 14 -46 14 -26 0 -43 -5 -46 -14z"/>
<path d="M2425 2749 c-4 -11 -5 -22 -3 -24 1 -1 47 -26 101 -55 87 -47 97 -50
97 -31 0 11 -7 24 -16 29 -25 14 -9 52 22 52 15 0 24 6 24 15 0 20 -8 22 -122
29 -92 6 -97 5 -103 -15z m145 -26 c-1 -26 -17 -30 -50 -12 l-35 18 43 1 c23
0 42 -3 42 -7z"/>
<path d="M2199 2470 c-31 -52 -124 -211 -208 -352 l-152 -257 55 -108 c104
-209 239 -385 394 -514 267 -223 566 -349 902 -381 439 -41 874 113 1220 431
l65 60 -197 197 -197 197 -63 -58 c-263 -244 -642 -331 -994 -229 -368 106
-672 447 -743 834 -7 36 -15 112 -19 170 l-7 104 -56 -94z"/>
<path d="M2410 2471 c0 -28 5 -53 10 -56 6 -4 51 -3 100 1 66 5 90 10 90 20 0
10 -13 14 -40 14 -38 0 -40 2 -40 30 0 20 -5 30 -15 30 -10 0 -15 -10 -15 -30
0 -25 -4 -30 -25 -30 -22 0 -25 4 -25 35 0 28 -4 35 -20 35 -17 0 -20 -7 -20
-49z"/>
<path d="M3177 2472 c-38 -42 -49 -143 -23 -207 14 -33 18 -35 60 -35 46 0 46
0 46 -35 0 -31 -3 -35 -39 -45 -44 -12 -94 -47 -86 -61 4 -5 67 -9 141 -9 107
0 134 3 134 14 0 17 -33 39 -82 55 -34 11 -38 16 -38 47 0 34 0 34 45 34 55 0
66 17 73 111 5 69 -15 135 -45 146 -22 9 -28 -5 -10 -25 23 -26 36 -94 26
-144 -4 -24 -8 -46 -9 -50 0 -5 -43 -8 -95 -8 l-95 0 -7 28 c-13 54 -7 118 15
156 12 20 22 39 22 42 0 10 -18 3 -33 -14z m158 -352 c13 -6 -7 -9 -60 -9 -53
0 -73 3 -60 9 11 5 38 9 60 9 22 0 49 -4 60 -9z"/>
<path d="M2515 2374 c-33 -8 -70 -16 -81 -19 -29 -6 -35 -26 -23 -69 8 -29 15
-36 34 -36 36 0 158 30 173 43 24 19 -2 98 -32 96 -6 0 -38 -7 -71 -15z m75
-43 c0 -14 -13 -21 -62 -31 -85 -17 -83 -17 -83 4 0 16 11 23 50 32 76 18 95
17 95 -5z"/>
<path d="M2647 2184 c-3 -4 1 -20 9 -36 24 -47 -9 -69 -39 -25 -11 16 -18 19
-27 11 -9 -9 -9 -17 2 -33 11 -18 11 -23 -2 -31 -23 -15 -28 -12 -45 20 -10
19 -20 27 -30 24 -8 -4 -15 -8 -15 -11 0 -7 51 -93 55 -93 4 0 22 10 117 64
l47 27 -21 44 c-21 42 -36 54 -51 39z"/>
<path d="M2689 2042 c-27 -24 -30 -31 -20 -49 17 -34 14 -65 -6 -61 -12 2 -18
13 -18 28 0 29 -23 33 -39 8 -8 -13 -6 -24 10 -45 27 -36 47 -39 84 -13 29 21
30 22 15 57 -14 32 -14 39 -1 51 19 20 39 5 32 -23 -7 -28 9 -42 29 -25 22 18
18 42 -10 73 -32 34 -37 34 -76 -1z"/>
<path d="M2751 1895 c-46 -57 -57 -85 -32 -85 4 0 28 25 52 55 24 30 49 55 56
55 28 0 21 -24 -22 -75 -34 -39 -45 -60 -40 -72 6 -15 16 -8 61 42 67 74 72
90 43 121 -37 39 -60 31 -118 -41z"/>
<path d="M2913 1868 c-29 -38 -72 -128 -68 -141 7 -16 47 -37 73 -37 17 0 72
82 86 128 12 38 -67 80 -91 50z m51 -49 c-1 -8 -13 -34 -28 -58 -24 -38 -30
-42 -42 -29 -13 12 -11 20 12 62 17 31 32 46 43 44 9 -2 16 -11 15 -19z"/>
<path d="M3011 1731 c-31 -92 -33 -121 -11 -121 5 0 14 17 20 38 15 46 22 53
39 43 11 -7 11 -15 2 -41 -15 -44 -14 -60 3 -60 9 0 27 38 49 105 33 97 34
105 17 105 -14 0 -23 -12 -31 -40 -13 -42 -16 -45 -37 -32 -10 7 -10 17 2 49
13 37 13 42 -1 47 -8 3 -15 6 -16 6 -1 0 -17 -45 -36 -99z"/>
<path d="M3546 1811 c-3 -5 7 -46 23 -91 23 -65 26 -83 15 -87 -8 -3 -14 -14
-14 -25 0 -21 10 -20 77 8 35 14 38 46 4 37 -14 -4 -23 11 -47 78 -28 79 -45
102 -58 80z"/>
<path d="M3454 1751 c5 -36 4 -41 -13 -41 -14 0 -21 10 -25 35 -4 21 -13 35
-21 35 -18 0 -18 -16 -4 -115 10 -63 14 -75 30 -75 17 0 18 5 13 40 -6 36 -5
40 15 40 17 0 21 -6 21 -30 0 -28 22 -51 36 -37 3 3 -1 45 -8 93 -11 72 -17
90 -32 92 -17 4 -18 -1 -12 -37z"/>
<path d="M3240 1765 c0 -9 14 -17 39 -21 32 -5 38 -10 34 -25 -3 -12 -14 -19
-29 -19 -31 0 -32 -27 -1 -32 14 -2 23 -11 25 -25 3 -20 -1 -23 -32 -23 -55 0
-47 -26 10 -34 25 -3 50 -3 55 0 5 3 9 48 9 100 l0 94 -55 0 c-42 0 -55 -4
-55 -15z"/>
</g>
</svg>
