<?xml version="1.0" encoding="UTF-8"?>
<svg version="1.1" viewBox="0 0 2000 2000" width="500" height="500" xmlns="http://www.w3.org/2000/svg">
<path transform="translate(0)" d="m0 0h2e3v2e3h-2e3z"/>
<path transform="translate(1242,459)" d="m0 0h59l43 4 36 6 31 8 29 9 33 13 34 16 22 12 26 16 17 12 12 9 14 11 14 12 10 9 8 7 18 18 1 3-127 127-4-1v-2l-4-2-13-13-8-7-16-13-18-13-18-11-22-12-23-10-33-11-21-5-23-4-16-1-18-2h-29l-39 4-26 5-25 7-20 7-25 11-22 12-24 16-16 12-15 13-7 7h-2v2l-4 4h-2v2h-2v2h-2v2h-2l-2 4-11 11-22 28-13 20-12 21-16 33-9 15-13 22-19 32-13 22-10 17-9 15-14 24-12 20-17 29-9 15-17 29-13 22-15 25-17 29-16 27-15 25-15 26-8 13-10 17-13 22-12 20 140 1 7 9 14 19 14 17 12 14 14 15 18 18 8 7 11 10 10 8 18 14 17 12 15 10 18 11 23 13 6 3 4 4h-666v-4l12-20 15-26 8-13 6-11 10-17 14-24 17-29 14-24 7-11 6-11 17-29 8-14 9-15 28-48 13-22 16-27 10-17 16-27 15-26 10-16 6-11 13-22 9-15 17-29 7-11 6-11 15-25 14-24 9-15 19-32 13-22 48-80 12-19 6-11 12-19 12-20 13-21 24-38 11-16 11-13 11-12 26-26 11-9 14-12 17-13 23-16 21-13 29-16 29-14 27-11 25-9 32-9 27-6 35-5z" fill="#FEFEFE"/>
<path transform="translate(922,976)" d="m0 0h2l-1 12v17l1 21 3 31 5 25 8 30 8 23 12 27 12 22 13 20 14 19 13 15 7 8 27 27 11 9 18 14 20 13 21 12 23 11 24 9 25 7 32 6 31 3h41l28-3 31-6 28-8 25-10 25-12 18-10 21-14 16-12 14-12 12-11 9-9 5 2 1 3h2l6 7 8 7 27 27 7 8 61 61 8 7 5 6-2 4-5 4-1 2h-2l-2 4h-2l-2 4-8 7-12 11-11 9-12 10-19 14-21 14-21 13-34 18-29 13-21 8-30 10-27 7-14 3-36 6-46 4h-43l-44-4-36-6-22-5-25-7-35-12-30-13-25-12-22-12-26-16-20-14-17-13-16-13-12-11-8-7-9-8-7-8-10-10-7-8-11-13-13-17-14-19-14-22-14-24-17-33-11-26 5-9 10-17 12-20 13-22 58-98 32-54 6-10z" fill="#FEFEFE"/>
<path transform="translate(353,459)" d="m0 0h720v3l-18 6-31 15-16 8-25 14-20 13-20 14-16 12-11 9-13 11-10 9-16 15-9 9-7 8-12 13-9 11-10 13-1 1h-475l-1-1z" fill="#FEFEFE"/>
<path transform="translate(1279 1e3)" d="m0 0 5 1 6 5 8 16 3 14v13l-2 14-5 18-3 4h-32l1 24 19 5 15 8 6 7 1 6-1 1h-90l-2-3 3-6 7-6 16-8 12-3h5v-25h-32l-3-5-5-21-1-7v-17l3-13 7-13 8-8h5l2 2-1 5-7 8-5 11-2 11v13l3 17 1 8h62l4-22v-20l-3-13-7-12-3-4v-4z" fill="#FEFEFE"/>
<path transform="translate(1095,753)" d="m0 0 7 1 8 7 8 11 1 5-1 2 6 2 9 10 6 10 1 5-6 8-12 10-5 4-4-1-10-13-14-18-13-18-5-6 2-4 14-11z" fill="#FEFEFE"/>
<path transform="translate(1025,1038)" d="m0 0h9l5 5 4 12v13l-5 4-14 4-37 8h-8l-5-4-4-11-1-13 3-5 11-4 36-8z" fill="#FEFEFE"/>
<path transform="translate(1291,707)" d="m0 0h9l19 3 5 3 2 3v15l-4 29-3 9-4 3-8 1-21-2-2-1 1-13 5-43z" fill="#FEFEFE"/>
<path transform="translate(1142,1203)" d="m0 0 8 2 12 6 5 4 1 2v8l-8 16-11 19-8 9-9-1-10-5-7-6-1-2v-7l8-16 11-20 7-8z" fill="#FEFEFE"/>
<path transform="translate(1236,904)" d="m0 0h33l3 8 30 9 2 2-1 9-15 46-5 10-3 1-4-3 1-8 11-33 5-17-11-2-19-6-3-5v-2h-14l-2 6-15 5-14 3 17 48 2 5v7l-1 1h-6l-4-8-15-42-3-10v-6l29-10h2z" fill="#FEFEFE"/>
<path transform="translate(1147,733)" d="m0 0h7l5 4 8 15 4 11v8l11 13v3l-7 4-5-2-9-11-8 1 7 15-1 4-7 4-3-1-14-29-11-23-1-5 21-10z" fill="#FEFEFE"/>
<path transform="translate(978,912)" d="m0 0 17 1 57 4-1 7-3 5-14-1-2 9-1 8 10 3 1 1-1 11-1 2-4-1-50-27-11-7-1-4 3-10z" fill="#FDFDFD"/>
<path transform="translate(1179,1221)" d="m0 0 9 2 3 2-3 10-6 18 6 2h5l8-25 4-1 9 3-1 5-21 63-4 1-8-3 1-8 6-18 1-4-11-2-2 9-6 17-3 2-8-4-1-3 12-37 9-28z" fill="#FEFEFE"/>
<path transform="translate(1261,706)" d="m0 0h11l1 1 3 60-2 4-7-1-9-14-11-19 1 11v23l-1 1h-9l-1-1-2-26-1-21v-16h9l6 9 13 23z" fill="#FEFEFE"/>
<path transform="translate(1196,715)" d="m0 0h5l6 9 13 24 12 22v3l-3 1h-8l-3-5-2-4-9 1-8 1v12l-3 3-8 2-1-2-1-44v-19l7-3z" fill="#FEFEFE"/>
<path transform="translate(1318,1233)" d="m0 0h6l3 16 6 39v8l-3 1h-8l-3-13-2-11h-11l3 18v9l-11 1-2-5-7-48-1-9 4-2h8l2 9 2 16 12-2-3-15-1-10z" fill="#FEFEFE"/>
<path transform="translate(1105,1176)" d="m0 0 6 1 10 6 8 9 1 7-7 11-9 10-8 10-11 13-5-1-5-4 1-5 9-10 8-10 11-14 1-3-5-5-4 1-8 9-9 11-9 10-5 6-4-2-5-5 2-4 9-11 13-15 8-10z" fill="#FEFEFE"/>
<path transform="translate(1074,1143)" d="m0 0h6l8 7 7 9 2 4-1 6-7 8-4 2-7-7 2-4 3-1-2-7-2-2h-5l-5 4 1 7 5 14v5l-11 10-10 5-5-1-8-7-6-9-2-4 1-6 6-7 3-2 5 1 3 6-2 5-1 3 2 5 5 1 4-2 1-6-7-18 1-4 9-8z" fill="#FEFEFE"/>
<path transform="translate(1350,719)" d="m0 0h7l13 4 7 5 1 2v8l-4 9-6-2-3-2-2-9-1-1h-7l-3 5v5l4 2 10 7 5 5-4 15-4 8-4 4h-10l-12-4-7-6v-9l2-8 9 2 3 3 1 8 6 2 3-1 2-9-2-4-11-7-5-4v-7l4-12 6-8z" fill="#FEFEFE"/>
<path transform="translate(1054,1101)" d="m0 0 4 1 13 24 3 6-3 3-12 6-23 13-17 9-4-4-13-24-1-5 8-4 4 1 8 17v2l11-5h2l-4-10-3-6 2-4 5-3 4 2 7 12 5-1 5-3h2l-10-19 2-5z" fill="#FEFEFE"/>
<path transform="translate(1245,1237)" d="m0 0h14l21 1 1 1v30l-1 32-1 1h-24l-12-1v-11l1-1 23 1v-14l-17-1-1-2v-8l2-2 17 1 1-14h-15l-9-1-1-1v-9z" fill="#FEFEFE"/>
<path transform="translate(972,993)" d="m0 0h8l4 1v23h16v-19h11l1 1v17h24l1 11-1 1-10 1-33 1h-20l-1-12z" fill="#FEFEFE"/>
<path transform="translate(1351,1223)" d="m0 0 3 1 10 28 9 27 7-1 4-1 3 5 1 6-9 4-21 7-5-1-2-5v-5l10-2-8-24-11-32 1-4z" fill="#FEFEFE"/>
<path transform="translate(1e3 872)" d="m0 0 19 9 26 13 3 1 3-9 4-8 11 5-2 6-11 22-2 1-19-9-19-10-18-9 1-5z" fill="#FEFEFE"/>
<path transform="translate(1029,829)" d="m0 0 4 2 19 14 12 9 5 4 4 1 2-4 7-10 5 2 5 3-1 4-13 18-3 4-5-1-17-13-19-14-11-8 1-5h2l2-5z" fill="#FEFEFE"/>
<path transform="translate(1247,863)" d="m0 0h12l6 5 2 5-1 7-4 6-4 4-2 7-4 2-3-3-1-6-5-4-4-7v-8l4-6z" fill="#FEFEFE"/>
<path transform="translate(1024,1050)" d="m0 0h6l1 4v8l-16 4-29 6h-3l-2-8 1-5 17-4z"/>
<path transform="translate(1144,1217)" d="m0 0 7 1 4 3-1 6-15 27-2 2-6-1-5-4 1-5 13-23z"/>
<path transform="translate(1303,720)" d="m0 0 9 1 2 1-1 13-3 22-2 4-10-1-1-5 5-34z"/>
<path transform="translate(1248,1122)" d="m0 0h13l16 4 7 3v2h-57v-3l14-5z"/>
<path transform="translate(1145,746)" d="m0 0h5l5 8 3 9-5 4-7 1-7-16 2-4z"/>
<path transform="translate(1114,791)" d="m0 0 4 1 6 8 1 6-6 5-4-1-9-13 4-4z"/>
<path transform="translate(1094,767)" d="m0 0h5l7 9 1 6-6 4-5-1-8-11 2-4z"/>
<path transform="translate(994,924)" d="m0 0 17 1 12 1-1 7-2 6-16-8-10-6z"/>
<path transform="translate(1198,734)" d="m0 0 4 4 7 15v2l-10 2-1-11z"/>
<path transform="translate(1251,871)" d="m0 0 5 1 1 6-5 2-3-2v-6z"/>
</svg>
