<?xml version="1.0" standalone="no"?>
<!DOCTYPE svg PUBLIC "-//W3C//DTD SVG 20010904//EN"
 "http://www.w3.org/TR/2001/REC-SVG-20010904/DTD/svg10.dtd">
<svg version="1.0" xmlns="http://www.w3.org/2000/svg"
 width="500.000000pt" height="500.000000pt" viewBox="0 0 500.000000 500.000000"
 preserveAspectRatio="xMidYMid meet">

<g transform="translate(0.000000,500.000000) scale(0.100000,-0.100000)"
fill="#000000" stroke="none">
<path d="M0 2500 l0 -2500 2500 0 2500 0 0 2500 0 2500 -2500 0 -2500 0 0
-2500z m2585 1306 c-154 -74 -269 -157 -403 -292 l-123 -124 -587 2 -587 3 -3
228 -2 227 897 0 898 0 -90 -44z m880 15 c93 -23 223 -69 293 -105 83 -42 223
-141 297 -209 l70 -65 -159 -161 -159 -160 -75 64 c-85 73 -212 142 -322 176
-65 20 -95 23 -235 23 -152 -1 -165 -2 -255 -32 -228 -76 -408 -235 -530 -470
-25 -48 -195 -339 -377 -647 -182 -307 -329 -563 -326 -568 2 -4 66 -7 141 -7
76 1 151 1 168 0 27 0 41 -12 103 -90 103 -128 263 -262 406 -339 l40 -21
-828 0 c-455 0 -827 2 -827 4 0 16 1000 1709 1221 2065 177 288 528 511 881
561 106 15 381 4 473 -19z m-335 -631 c11 -22 23 -40 27 -40 3 0 3 18 0 40 -4
29 -1 40 8 40 9 0 15 -23 20 -71 9 -91 -3 -106 -39 -47 l-26 43 0 -43 c0 -31
-4 -42 -12 -40 -16 6 -24 158 -9 158 6 0 20 -18 31 -40z m173 25 c11 -10 14
-27 10 -57 -10 -78 -18 -88 -63 -88 l-41 0 6 48 c14 114 14 112 45 112 16 0
35 -7 43 -15z m-260 -74 c20 -38 33 -72 28 -75 -5 -3 -14 1 -21 9 -19 22 -39
18 -50 -10 -19 -49 -30 -26 -30 60 0 74 2 85 18 85 11 0 30 -25 55 -69z m384
44 c13 -9 20 -22 17 -30 -8 -20 -34 -19 -34 0 0 8 -7 15 -15 15 -23 0 -18 -26
10 -44 22 -14 23 -19 13 -47 -13 -37 -31 -45 -64 -31 -26 13 -34 52 -9 52 8 0
15 -7 15 -15 0 -8 7 -15 15 -15 22 0 18 33 -5 48 -22 14 -25 33 -10 63 13 23
38 24 67 4z m-512 -68 c9 -23 21 -50 26 -60 16 -30 -1 -41 -26 -17 -24 22 -41
15 -24 -10 12 -21 11 -30 -4 -30 -10 0 -77 117 -77 136 0 9 63 32 76 27 6 -2
19 -23 29 -46z m-115 -55 c55 -73 55 -71 24 -103 -15 -16 -30 -29 -34 -29 -6
0 -110 136 -110 144 0 9 64 44 74 40 6 -3 27 -26 46 -52z m-171 -177 c44 -32
49 -33 64 -18 29 29 40 2 13 -31 l-23 -30 -62 48 c-34 26 -59 52 -56 57 9 14
13 12 64 -26z m535 -61 c5 -14 -21 -63 -35 -64 -12 0 -31 49 -26 64 8 21 53
21 61 0z m-537 -58 c10 27 23 38 33 28 8 -8 6 -19 -7 -41 l-17 -31 -68 34
c-37 19 -68 38 -68 42 0 21 16 19 68 -10 31 -16 58 -26 59 -22z m552 -40 c7
-8 26 -18 42 -21 16 -4 31 -10 33 -14 8 -12 -41 -155 -53 -159 -15 -5 -14 -1
10 70 22 66 20 88 -9 88 -10 0 -27 7 -38 15 -25 19 -42 19 -60 0 -9 -8 -24
-15 -34 -15 -30 0 -32 -15 -6 -84 13 -37 20 -69 16 -71 -5 -3 -11 -2 -14 3
-13 22 -54 147 -50 153 2 4 18 10 35 14 17 4 33 13 36 21 7 19 77 18 92 0z
m-561 -22 c22 -6 13 -24 -13 -24 -28 0 -32 -18 -13 -50 22 -35 1 -32 -76 10
-70 38 -87 56 -70 73 7 6 146 -1 172 -9z m-278 -454 c93 -321 359 -571 675
-631 93 -17 252 -16 343 4 138 30 283 106 393 205 l51 45 158 -158 c130 -130
156 -161 148 -174 -17 -26 -138 -128 -210 -176 -220 -147 -454 -219 -718 -219
-216 0 -390 42 -582 139 -143 72 -224 131 -338 245 -114 114 -198 231 -261
364 -38 81 -38 81 -20 111 39 63 112 187 217 365 l109 185 7 -115 c4 -70 15
-145 28 -190z m120 234 c0 -17 5 -24 20 -24 13 0 20 7 20 20 0 11 7 20 15 20
8 0 15 -9 15 -20 0 -16 7 -20 30 -20 20 0 30 -5 30 -15 0 -12 -16 -15 -80 -15
l-80 0 0 38 c0 21 3 42 6 45 12 11 24 -3 24 -29z m606 -36 c-16 -23 -21 -84
-10 -125 6 -21 12 -23 84 -23 l78 0 6 31 c10 49 7 82 -9 113 -17 32 -19 46 -6
46 15 0 41 -67 41 -108 0 -21 -5 -53 -11 -71 -10 -28 -15 -31 -50 -31 -37 0
-39 -2 -39 -30 0 -20 6 -32 18 -36 48 -15 82 -35 82 -49 0 -13 -16 -15 -110
-13 -63 2 -111 7 -112 13 -1 6 22 21 50 35 44 21 52 29 52 53 0 25 -3 27 -40
27 -35 0 -42 4 -51 28 -16 41 -6 137 16 162 24 27 32 9 11 -22z m-463 -82 c8
-23 6 -32 -6 -41 -22 -16 -147 -39 -156 -29 -16 17 -21 63 -9 71 24 15 93 31
127 30 28 -2 36 -7 44 -31z m62 -161 c11 -19 17 -36 15 -38 -16 -12 -122 -67
-130 -67 -14 0 -46 68 -36 77 4 4 15 -3 25 -16 23 -30 58 -23 41 8 -13 25 -13
31 1 31 7 0 18 -8 25 -17 18 -26 40 -4 25 25 -14 27 -14 32 2 32 8 0 22 -16
32 -35z m61 -90 c18 -28 13 -55 -11 -55 -12 0 -15 6 -10 19 7 22 -12 38 -27
23 -7 -7 -7 -20 0 -41 10 -27 8 -33 -15 -51 -19 -15 -30 -17 -44 -10 -29 16
-40 44 -25 65 16 22 36 12 29 -15 -4 -14 0 -20 12 -20 14 0 16 6 10 36 -12 64
47 100 81 49z m74 -73 c30 -24 22 -53 -30 -111 -31 -34 -41 -40 -46 -27 -4 10
7 31 30 58 39 45 44 58 22 58 -8 0 -31 -20 -52 -45 -25 -31 -40 -43 -47 -36
-11 11 -3 23 57 89 35 37 37 38 66 14z m101 -71 l24 -20 -29 -56 c-33 -64 -46
-73 -82 -57 -32 15 -31 46 6 105 33 52 46 56 81 28z m64 -72 c-5 -31 -4 -39 8
-39 9 0 18 13 22 30 4 17 13 30 21 30 19 0 18 -2 -12 -93 -16 -47 -31 -76 -37
-74 -13 5 -13 6 -2 50 10 39 -20 36 -34 -3 -11 -34 -31 -40 -31 -11 0 11 12
52 26 90 28 75 50 86 39 20z m444 -32 c18 -51 28 -67 42 -67 26 0 24 -19 -3
-29 -58 -21 -68 -22 -68 -8 0 9 6 17 12 19 10 4 7 21 -10 69 -25 73 -27 92 -9
87 6 -3 23 -34 36 -71z m-231 37 c20 -6 22 -12 22 -78 0 -40 -2 -75 -4 -77 -3
-3 -23 -3 -45 -1 -28 3 -41 9 -41 19 0 10 9 13 27 11 36 -4 46 29 11 34 -30 4
-30 22 0 26 14 2 22 10 22 23 0 14 -7 19 -30 19 -29 0 -38 9 -23 23 8 9 31 9
61 1z m77 -24 c4 -17 13 -30 22 -30 11 0 13 7 8 30 -5 23 -3 30 9 30 17 0 22
-15 32 -92 5 -49 4 -58 -9 -58 -10 0 -17 11 -19 27 -5 42 -28 41 -28 -1 0 -24
-5 -36 -14 -36 -9 0 -16 23 -23 73 -6 39 -8 75 -6 80 9 16 22 6 28 -23z"/>
<path d="M3256 3188 c-3 -7 -7 -30 -11 -50 -5 -30 -3 -38 9 -38 20 0 23 8 27
54 4 38 -16 64 -25 34z"/>
<path d="M2997 3130 c3 -11 9 -20 14 -20 11 0 11 3 3 24 -9 23 -23 20 -17 -4z"/>
<path d="M2850 3122 c0 -22 13 -42 27 -42 21 0 12 44 -9 48 -10 2 -18 -1 -18
-6z"/>
<path d="M2727 3074 c-3 -3 -1 -14 6 -25 8 -13 14 -15 24 -7 10 8 10 14 2 24
-12 15 -22 17 -32 8z"/>
<path d="M2770 3006 c0 -7 7 -19 15 -26 12 -10 16 -9 21 3 3 9 3 21 -1 27 -9
15 -35 12 -35 -4z"/>
<path d="M3120 2810 c0 -5 5 -10 10 -10 6 0 10 5 10 10 0 6 -4 10 -10 10 -5 0
-10 -4 -10 -10z"/>
<path d="M2513 2674 c15 -8 32 -12 38 -8 16 9 -10 24 -41 23 l-25 0 28 -15z"/>
<path d="M3080 2180 c-10 -7 5 -10 53 -10 43 0 66 4 62 10 -8 13 -95 13 -115
0z"/>
<path d="M2492 2360 c-40 -9 -49 -17 -35 -31 13 -13 115 11 121 29 4 14 -33
15 -86 2z"/>
<path d="M2840 1924 c-20 -34 -21 -64 -3 -64 12 0 54 81 47 91 -10 17 -22 9
-44 -27z"/>
</g>
</svg>
