<?xml version="1.0" encoding="iso-8859-1"?>
<!-- Uploaded to: SVG Repo, www.svgrepo.com, Generator: SVG Repo Mixer Tools -->
<svg height="800px" width="800px" version="1.1" id="Layer_1" xmlns="http://www.w3.org/2000/svg" xmlns:xlink="http://www.w3.org/1999/xlink" 
	 viewBox="0 0 511.98 511.98" xml:space="preserve">
<path style="fill:#424953;" d="M490.637,117.335v53.326c0,5.891,4.781,10.672,10.688,10.672c5.874,0,10.655-4.781,10.655-10.672
	v-53.326H490.637z"/>
<path style="fill:#646C77;" d="M447.982,213.332c0,5.89,4.781,10.663,10.656,10.663c5.906,0,10.688-4.773,10.688-10.663v-53.335
	h-21.344V213.332z"/>
<path style="fill:#424953;" d="M405.329,255.994c0,5.891,4.766,10.664,10.656,10.664s10.655-4.773,10.655-10.664V202.66h-21.312
	v53.334H405.329z"/>
<path style="fill:#646C77;" d="M362.642,298.649c0,5.905,4.781,10.687,10.687,10.687c5.875,0,10.656-4.781,10.656-10.687V245.33
	h-21.343L362.642,298.649L362.642,298.649z"/>
<path style="fill:#424953;" d="M319.988,341.335c0,5.875,4.78,10.656,10.655,10.656c5.906,0,10.688-4.781,10.688-10.656v-53.342
	h-21.343V341.335z"/>
<path style="fill:#646C77;" d="M277.334,383.989c0,5.891,4.766,10.656,10.655,10.656c5.891,0,10.656-4.766,10.656-10.656v-53.342
	h-21.312v53.342H277.334z"/>
<path style="fill:#424953;" d="M0,170.661c0,5.891,4.773,10.672,10.664,10.672s10.671-4.781,10.671-10.672v-53.326H0V170.661z"/>
<path style="fill:#646C77;" d="M42.662,213.332c0,5.89,4.781,10.663,10.671,10.663c5.891,0,10.664-4.773,10.664-10.663v-53.335
	H42.662V213.332z"/>
<path style="fill:#424953;" d="M85.332,255.994c0,5.891,4.773,10.664,10.664,10.664s10.664-4.773,10.664-10.664V202.66H85.332
	V255.994z"/>
<path style="fill:#646C77;" d="M127.995,298.649c0,5.905,4.773,10.687,10.664,10.687s10.672-4.781,10.672-10.687V245.33h-21.335
	v53.319H127.995z"/>
<path style="fill:#424953;" d="M170.657,341.335c0,5.875,4.781,10.656,10.672,10.656c5.89,0,10.664-4.781,10.664-10.656v-53.342
	h-21.335L170.657,341.335L170.657,341.335z"/>
<path style="fill:#646C77;" d="M213.328,383.989c0,5.891,4.773,10.656,10.663,10.656c5.891,0,10.664-4.766,10.664-10.656v-53.342
	h-21.327V383.989z"/>
<polygon style="fill:#E5E8EC;" points="0,117.335 255.99,373.333 511.98,117.335 "/>
<polygon style="fill:#5E9CEA;" points="53.333,117.335 255.99,319.992 458.638,117.335 "/>
</svg>