<?xml version="1.0" encoding="iso-8859-1"?>
<!-- Uploaded to: SVG Repo, www.svgrepo.com, Generator: SVG Repo Mixer Tools -->
<svg height="800px" width="800px" version="1.1" id="Layer_1" xmlns="http://www.w3.org/2000/svg" xmlns:xlink="http://www.w3.org/1999/xlink" 
	 viewBox="0 0 512.335 512.335" xml:space="preserve">
<g transform="translate(1)">
	<path style="fill:#FFE100;" d="M442.901,239.268c-5.12,0-8.533-3.413-8.533-8.533v-46.08c0-5.12,3.413-8.533,8.533-8.533
		c5.12,0,8.533,3.413,8.533,8.533v46.08C451.434,235.001,448.021,239.268,442.901,239.268z"/>
	<polygon style="fill:#E4667F;" points="459.967,324.601 408.767,324.601 408.767,264.868 434.367,230.735 459.967,264.868 	"/>
	<polygon style="fill:#DD3859;" points="434.367,230.735 425.834,241.828 442.901,264.868 442.901,324.601 459.967,324.601 
		459.967,264.868 	"/>
	<path style="fill:#FFE100;" d="M110.101,43.001c14.507-9.387,81.067-29.867,93.867-34.133c0,0-6.827,83.627,51.2,119.467
		c58.027-35.84,51.2-119.467,51.2-119.467c12.8,4.267,79.36,24.747,93.867,34.133s53.76,73.387,59.733,119.467
		c0,0-25.6,34.133-68.267,34.133l-17.067-51.2c0,0-34.133,69.12-34.133,136.533c0,0,34.133,132.267,34.133,204.8
		c0,0-74.24,17.067-119.467,17.067s-119.467-17.067-119.467-17.067c0-72.533,34.133-204.8,34.133-204.8
		c0-67.413-34.133-136.533-34.133-136.533l-17.067,51.2c-42.667,0-68.267-34.133-68.267-34.133
		C56.341,116.388,95.594,52.388,110.101,43.001"/>
	<g>
		<path style="fill:#FFA800;" d="M374.634,486.735c0-72.533-34.133-204.8-34.133-204.8c0-43.52,14.507-87.893,24.747-114.347
			l-7.68-22.187c0,0-34.133,69.12-34.133,136.533c0,0,34.133,132.267,34.133,204.8H374.634z"/>
		<path style="fill:#FFA800;" d="M459.967,162.468c-5.973-46.08-45.227-110.08-59.733-119.467h-17.067
			c14.507,9.387,58.027,86.187,64,132.267L459.967,162.468z"/>
	</g>
	<g>
		<path style="fill:#FFFFFF;" d="M135.701,486.735c0-72.533,34.133-204.8,34.133-204.8c0-43.52-14.507-87.893-24.747-114.347
			l7.68-22.187c0,0,34.133,69.12,34.133,136.533c0,0-34.133,132.267-34.133,204.8H135.701z"/>
		<path style="fill:#FFFFFF;" d="M50.367,162.468c5.973-46.08,45.227-110.08,59.733-119.467h17.067
			c-14.507,9.387-58.027,86.187-64,132.267L50.367,162.468z"/>
	</g>
	<g>
		<path style="fill:#FDCC00;" d="M163.007,22.521L163.007,22.521c-0.853,29.867,7.68,59.733,23.893,84.48l8.533,12.8l23.04-34.133
			c-17.067-36.693-14.507-76.8-14.507-76.8C197.994,10.575,180.927,16.548,163.007,22.521"/>
		<path style="fill:#FDCC00;" d="M347.327,22.521L347.327,22.521c0.853,29.867-7.68,59.733-23.893,84.48l-8.533,12.8l-23.04-34.133
			c17.067-36.693,14.507-76.8,14.507-76.8C312.341,10.575,329.407,16.548,347.327,22.521"/>
		<path style="fill:#FDCC00;" d="M306.367,8.868c-14.507,0-33.28,8.533-51.2,8.533s-36.693-8.533-51.2-8.533
			c0,0-6.827,83.627,51.2,119.467C313.194,92.495,306.367,8.868,306.367,8.868"/>
	</g>
	<path d="M255.167,512.335c-45.227,0-118.613-16.213-121.173-17.067c-4.267-0.853-6.827-4.267-6.827-8.533
		c0-69.973,30.72-192,34.133-205.653c0-42.667-14.507-87.04-24.747-111.787l-10.24,29.867c-0.853,3.413-4.267,5.973-7.68,5.973
		c-46.08,0-74.24-35.84-75.093-37.547c-1.707-1.707-1.707-4.267-1.707-5.973c5.973-46.08,45.227-113.493,64-125.44
		c11.947-7.68,48.64-19.627,87.04-32.427c4.267-0.853,6.827-2.56,8.533-2.56c2.56-0.853,5.973,0,7.68,1.707
		c2.56,0.853,3.413,3.413,3.413,6.827c0,0.853-5.12,74.24,42.667,108.373c47.787-34.133,42.667-107.52,42.667-108.373
		c0-2.56,0.853-5.973,3.413-7.68c1.707-1.707,5.12-2.56,7.68-1.707c1.707,0.853,5.12,1.707,8.533,2.56
		c38.4,11.947,75.093,24.747,87.04,32.427c18.773,11.947,58.027,79.36,64,125.44c0,2.56,0,4.267-1.707,5.973
		c-0.853,2.56-29.013,38.4-75.093,38.4c-3.413,0-6.827-2.56-7.68-5.973l-10.24-29.867c-9.387,24.747-24.747,69.12-24.747,111.787
		c3.413,13.653,34.133,135.68,34.133,205.653c0,4.267-2.56,7.68-6.827,8.533C373.781,496.121,300.394,512.335,255.167,512.335z
		 M144.234,479.908c18.773,4.267,75.093,15.36,110.933,15.36s91.307-11.093,110.933-15.36c-1.707-71.68-33.28-194.56-34.133-195.413
		c0-0.853,0-1.707,0-1.707c0-68.267,33.28-137.387,34.987-139.947c1.707-3.413,5.12-5.12,8.533-5.12c3.413,0,6.827,2.56,7.68,5.973
		l15.36,45.227c28.16-2.56,46.933-21.333,52.907-28.16c-6.827-43.52-43.52-102.4-55.467-110.08
		c-11.093-6.827-59.733-23.04-80.213-29.867c-0.853,25.6-7.68,85.333-55.467,115.2c-2.56,1.707-5.973,1.707-9.387,0
		c-48.64-29.867-55.467-89.6-55.467-115.2c-21.333,6.827-69.973,22.187-81.067,29.013c-11.947,7.68-47.787,66.56-55.467,110.08
		c5.973,6.827,25.6,25.6,52.907,28.16l15.36-45.227c1.707-3.413,4.267-5.973,7.68-5.973s6.827,1.707,8.533,5.12
		c1.707,2.56,34.987,71.68,34.987,139.947c0,0.853,0,1.707,0,1.707C177.514,285.348,145.941,408.228,144.234,479.908z"/>
	<path d="M255.167,136.868c-1.707,0-3.413,0-4.267-0.853c-61.44-38.4-55.467-124.587-55.467-128c0-4.267,4.267-7.68,8.533-7.68
		c7.68,0,16.213,1.707,24.747,4.267c8.533,1.707,17.92,4.267,26.453,4.267s17.92-2.56,26.453-4.267
		c8.533-1.707,17.067-4.267,24.747-4.267c4.267,0,8.533,3.413,8.533,7.68c0,3.413,5.973,89.6-55.467,127.147
		C258.581,136.015,256.874,136.868,255.167,136.868z M212.501,18.255c0,20.48,5.12,72.533,42.667,99.84
		c37.547-27.307,42.667-79.36,42.667-99.84c-3.413,0.853-7.68,1.707-11.947,2.56c-9.387,2.56-20.48,5.12-30.72,5.12
		c-10.24,0-21.333-2.56-30.72-5.12C220.181,19.961,215.914,19.108,212.501,18.255z"/>
	<path d="M195.434,128.335c-2.56,0-5.12-1.707-6.827-3.413l-8.533-12.8c-17.92-26.453-26.453-58.027-25.6-89.6
		c0-3.413,2.56-6.827,5.973-7.68c11.947-4.267,23.893-7.68,32.427-10.24c4.267-0.853,6.827-2.56,8.533-2.56
		c2.56-0.853,5.973,0,7.68,1.707c1.707,1.707,3.413,2.56,3.413,5.973c0,0-2.56,38.4,13.653,72.533
		c0.853,2.56,0.853,5.973-0.853,8.533l-23.04,34.133C200.554,126.628,197.994,128.335,195.434,128.335z M171.541,28.495
		c0,26.453,7.68,52.053,23.04,74.24l1.707,1.707l12.8-19.627c-11.093-24.747-13.653-49.493-13.653-64
		C188.607,22.521,180.074,25.081,171.541,28.495z"/>
	<path d="M314.901,128.335c-2.56,0-5.12-1.707-6.827-3.413l-23.04-34.133c-1.707-2.56-1.707-5.973-0.853-8.533
		c16.213-34.133,13.653-72.533,13.653-72.533c0-2.56,0.853-5.973,3.413-7.68c2.56-1.707,5.12-2.56,7.68-1.707
		c1.707,0.853,5.12,1.707,8.533,2.56c8.533,2.56,19.627,6.827,32.427,10.24c3.413,0.853,5.973,4.267,5.973,7.68
		c0.853,32.427-7.68,63.147-25.6,89.6l-8.533,12.8C320.021,126.628,317.461,128.335,314.901,128.335z M302.101,84.815l12.8,19.627
		l1.707-1.707c14.507-22.187,22.187-47.787,23.04-74.24c-8.533-2.56-17.067-5.973-23.893-7.68
		C314.901,35.321,312.341,60.068,302.101,84.815z"/>
	<path d="M434.367,239.268c-5.12,0-8.533-3.413-8.533-8.533v-46.08c0-5.12,3.413-8.533,8.533-8.533s8.533,3.413,8.533,8.533v46.08
		C442.901,235.001,439.487,239.268,434.367,239.268z"/>
	<path d="M459.967,333.135h-51.2c-5.12,0-8.533-3.413-8.533-8.533v-59.733c0-1.707,0.853-3.413,1.707-5.12l25.6-34.133
		c3.413-4.267,10.24-4.267,13.653,0l25.6,34.133c0.853,1.707,1.707,3.413,1.707,5.12v59.733
		C468.501,328.868,465.087,333.135,459.967,333.135z M417.301,316.068h34.133v-48.64l-17.067-23.04l-17.067,23.04V316.068z"/>
</g>
</svg>