<?xml version="1.0" encoding="iso-8859-1"?>
<!-- Uploaded to: SVG Repo, www.svgrepo.com, Generator: SVG Repo Mixer Tools -->
<svg version="1.1" id="Layer_1" xmlns="http://www.w3.org/2000/svg" xmlns:xlink="http://www.w3.org/1999/xlink" 
	 viewBox="0 0 512 512" xml:space="preserve">
<polygon style="fill:#64C1DF;" points="111.804,504.163 184.947,504.163 189.952,472.294 238.028,166.139 273.972,166.139 
	322.048,472.294 327.053,504.163 400.196,504.163 400.196,51.722 111.804,51.722 "/>
<g>
	<polygon style="fill:#37A0BD;" points="169.054,472.294 164.049,504.163 184.947,504.163 189.952,472.294 238.028,166.139 
		217.13,166.139 	"/>
	<polygon style="fill:#37A0BD;" points="342.946,472.294 347.951,504.163 327.053,504.163 322.048,472.294 273.972,166.139 
		294.87,166.139 	"/>
</g>
<g>
	<polygon style="fill:#FFFFFF;" points="400.196,472.294 400.196,504.163 327.053,504.163 322.048,472.294 	"/>
	<polygon style="fill:#FFFFFF;" points="189.952,472.294 184.947,504.163 111.804,504.163 111.804,472.294 	"/>
	<path style="fill:#FFFFFF;" d="M183.902,51.722c0,39.852-32.246,72.098-72.098,72.098V51.722H183.902z"/>
	<path style="fill:#FFFFFF;" d="M328.098,51.722c0,39.852,32.246,72.098,72.098,72.098V51.722H328.098z"/>
</g>
<rect x="111.804" y="7.837" style="fill:#DDB92E;" width="288.392" height="43.886"/>
<g>
	<rect x="111.804" y="7.837" style="fill:#F9D85C;" width="288.392" height="21.943"/>
	<rect x="219.429" y="7.837" style="fill:#F9D85C;" width="73.143" height="43.886"/>
</g>
<path d="M103.967,0v51.722v7.837V512h87.682l53.081-338.024h22.541L320.351,512h87.682V59.559v-7.837V0H103.967z M300.408,43.886
	V15.673h91.951v28.212H300.408z M227.265,43.886V15.673h57.469v28.212H227.265z M119.641,15.673h91.951v28.212h-91.951V15.673z
	 M175.57,59.559c-3.566,29.178-26.753,52.364-55.929,55.929V59.559H175.57z M119.641,496.327v-16.196h61.147l-2.543,16.196H119.641z
	 M183.249,464.457h-63.608V131.268c37.832-3.699,68.01-33.878,71.709-71.709h72.487v59.559c0,4.322-3.515,7.837-7.837,7.837h-7.837
	v31.347h-33.959v15.673h14.66L183.249,464.457z M283.136,173.976h14.66v-15.673h-33.959v-17.016
	c9.122-3.234,15.673-11.951,15.673-22.168V59.559h41.14c3.699,37.832,33.878,68.01,71.709,71.709v333.189h-63.608L283.136,173.976z
	 M333.755,496.327l-2.543-16.196h61.147v16.196H333.755z M392.359,115.488c-29.178-3.566-52.364-26.753-55.929-55.929h55.929
	V115.488z"/>
</svg>