<?xml version="1.0" encoding="iso-8859-1"?>
<!-- Uploaded to: SVG Repo, www.svgrepo.com, Generator: SVG Repo Mixer Tools -->
<svg version="1.1" id="Layer_1" xmlns="http://www.w3.org/2000/svg" xmlns:xlink="http://www.w3.org/1999/xlink" 
	 viewBox="0 0 512 512" xml:space="preserve">
<path style="fill:#CCCCCC;" d="M498.357,173.349C463.982,72.521,368.463,0,256,0C114.615,0,0,114.616,0,256
	C0,370.907,75.706,468.13,179.96,500.517L498.357,173.349z"/>
<path style="fill:#B2B2B2;" d="M512,256c0-28.922-4.802-56.722-13.643-82.651l-97.662-97.662L111.304,431.861l68.656,68.656
	C203.983,507.979,229.522,512,256,512C397.385,512,512,397.384,512,256z"/>
<path style="fill:#383838;" d="M256,42.296h22.261c18.365,0,33.391,15.026,33.391,33.391l-72.348,22.261L256,42.296z"/>
<path style="fill:#595959;" d="M256,42.296h-22.261c-18.365,0-33.391,15.026-33.391,33.391L256,97.948V42.296z"/>
<polygon style="fill:#F15D4A;" points="333.913,75.687 211.478,256 256,431.861 400.696,431.861 400.696,75.687 "/>
<polygon style="fill:#FF7452;" points="178.087,75.687 256,277.148 256,431.861 111.304,431.861 111.304,75.687 "/>
<polygon style="fill:#F2F2F2;" points="256,97.948 205.471,256 256,409.6 378.435,409.6 378.435,97.948 "/>
<rect x="133.565" y="97.948" style="fill:#FFFFFF;" width="122.435" height="311.652"/>
<polygon style="fill:#595959;" points="256,75.687 233.739,97.948 256,120.209 333.913,120.209 333.913,75.687 "/>
<rect x="178.087" y="75.687" style="fill:#7F7F7F;" width="77.913" height="44.522"/>
<polygon style="fill:#6FAEE8;" points="256,365.078 227.951,376.209 256,387.339 311.652,387.339 311.652,365.078 "/>
<g>
	<rect x="155.826" y="365.078" style="fill:#9ACEF3;" width="100.174" height="22.261"/>
	<path style="fill:#9ACEF3;" d="M256,142.47l25.043,125.217l-125.217-25.043C155.826,187.323,200.68,142.47,256,142.47z"/>
</g>
<path style="fill:#FBE287;" d="M256,242.643l25.043,52.591L256,342.817c-55.32,0-100.174-44.853-100.174-100.174H256z"/>
<path style="fill:#FFD652;" d="M256,242.643l63.861,26.296l6.974,44.54c-18.118,18.119-43.162,29.339-70.835,29.339V242.643z"/>
<path style="fill:#FF7452;" d="M256,242.643l56.973-25.043l43.201,25.043c0,27.66-11.207,52.704-29.339,70.835L256,242.643z"/>
<path style="fill:#85DC79;" d="M356.174,242.643H256l15.339-65.426l55.496-5.409C344.967,189.94,356.174,214.983,356.174,242.643z"
	/>
<g>
	<path style="fill:#6FAEE8;" d="M256,142.47c27.674,0,52.717,11.219,70.835,29.339L256,242.643V142.47z"/>
	<rect x="333.913" y="365.078" style="fill:#6FAEE8;" width="22.261" height="22.261"/>
</g>
</svg>